<?xml version="1.0" encoding="UTF-8" standalone="no"?>
<!-- Created with Inkscape (http://www.inkscape.org/) -->

<svg
   xmlns:dc="http://purl.org/dc/elements/1.1/"
   xmlns:cc="http://creativecommons.org/ns#"
   xmlns:rdf="http://www.w3.org/1999/02/22-rdf-syntax-ns#"
   xmlns:svg="http://www.w3.org/2000/svg"
   xmlns="http://www.w3.org/2000/svg"
   xmlns:sodipodi="http://sodipodi.sourceforge.net/DTD/sodipodi-0.dtd"
   xmlns:inkscape="http://www.inkscape.org/namespaces/inkscape"
   width="210mm"
   height="190mm"
   viewBox="0 0 210 190"
   version="1.1"
   id="svg4932"
   inkscape:version="0.92.4 (f8dce91, 2019-08-02)"
   sodipodi:docname="machinekit-hal.svg">
  <defs
     id="defs4926" />
  <sodipodi:namedview
     id="base"
     pagecolor="#ffffff"
     bordercolor="#666666"
     borderopacity="1.0"
     inkscape:pageopacity="0.0"
     inkscape:pageshadow="2"
     inkscape:zoom="0.98994949"
     inkscape:cx="223.33292"
     inkscape:cy="560"
     inkscape:document-units="mm"
     inkscape:current-layer="g6269"
     showgrid="false"
     inkscape:window-width="2560"
     inkscape:window-height="1361"
     inkscape:window-x="0"
     inkscape:window-y="0"
     inkscape:window-maximized="1"
     units="mm"
     width="150mm" />
  <metadata
     id="metadata4929">
    <rdf:RDF>
      <cc:Work
         rdf:about="">
        <dc:format>image/svg+xml</dc:format>
        <dc:type
           rdf:resource="http://purl.org/dc/dcmitype/StillImage" />
        <dc:title></dc:title>
      </cc:Work>
    </rdf:RDF>
  </metadata>
  <g
     inkscape:label="Layer 1"
     inkscape:groupmode="layer"
     id="layer1"
     transform="translate(0,-107)">
    <g
       id="g6229"
       transform="translate(1.3329554e-6,44.170164)">
      <g
         id="g4899"
         transform="matrix(2.244518,0,0,2.2164345,205.51766,-2119.1265)" />
      <g
         id="g6269"
         transform="translate(0,0.52915989)">
        <text
           xml:space="preserve"
           style="font-style:normal;font-variant:normal;font-weight:bold;font-stretch:normal;font-size:12.8365612px;line-height:0%;font-family:'Alegreya Sans SC';-inkscape-font-specification:'Alegreya Sans SC, Bold';text-align:start;letter-spacing:0px;word-spacing:0px;writing-mode:lr-tb;text-anchor:start;fill:#008080;fill-opacity:1;stroke:none;stroke-width:1.06971347px;stroke-linecap:butt;stroke-linejoin:miter;stroke-opacity:1"
           x="143.40141"
           y="246.23753"
           id="text4174"><tspan
             sodipodi:role="line"
             id="tspan4176"
             x="143.40141"
             y="246.23753"
             style="font-style:normal;font-variant:normal;font-weight:bold;font-stretch:normal;font-size:15.32744503px;line-height:125%;font-family:'Alegreya Sans SC';-inkscape-font-specification:'Alegreya Sans SC, Bold';text-align:start;writing-mode:lr-tb;text-anchor:start;fill:#008080;fill-opacity:1;stroke-width:1.06971347px">Things<tspan
   style="fill:#ffd75e;fill-opacity:1"
   id="tspan6195">.</tspan></tspan></text>
        <g
           id="g6253">
          <circle
             r="78.508148"
             cy="144.26672"
             cx="105"
             id="path5481"
             style="fill:#008080;fill-opacity:1;fill-rule:evenodd;stroke:#ffffff;stroke-width:1.40546155;stroke-linecap:butt;stroke-miterlimit:4;stroke-dasharray:none;stroke-opacity:1;paint-order:stroke markers fill" />
          <g
             id="g6241">
            <path
               id="path60921"
               d="m -21.08943,1016.0714 -4.338547,-0.9617 c -0.338967,-1.0799 -0.779958,-2.1141 -1.289522,-3.1092 l 2.348792,-3.9082 c 0.876406,-1.3999 1.317954,-3.4571 0,-4.7767 l -2.392836,-2.3895 c -0.645597,-0.6456 -1.513083,-0.9188 -2.385587,-0.9188 -0.906512,0 -1.822502,0.2944 -2.50824,0.7694 l -3.80501,2.4229 c -0.987351,-0.5124 -2.018188,-0.9489 -3.091953,-1.2968 l -0.975086,-4.38639 c -0.289348,-1.6106 -1.69762,-3.3523 -3.565837,-3.3523 h -3.379072 c -1.86766,0 -3.012229,1.7684 -3.382416,3.3791 l -1.083801,4.33339 c -1.147356,0.3652 -2.245652,0.8318 -3.29433,1.3832 l -3.900343,-2.4837 c -0.684623,-0.4756 -1.601728,-0.7694 -2.50824,-0.7694 -0.872504,0 -1.738318,0.2732 -2.385588,0.9188 l -2.38949,2.3895 c -1.321857,1.3196 -0.880309,3.3774 0,4.7768 l 2.469214,4.1133 c -0.463291,0.9332 -0.874734,1.8961 -1.191957,2.9035 l -4.338547,0.9617 c -1.610648,0.291 -3.354541,1.6976 -3.354541,3.5619 v 3.3797 c 0,1.8637 1.770096,3.0083 3.380744,3.3774 l 4.39374,1.096 c 0.304958,0.9288 0.682951,1.8253 1.112234,2.6911 l -2.470887,4.1172 c -0.878079,1.3977 -1.319627,3.4544 0,4.7746 l 2.391163,2.3894 c 0.645597,0.6456 1.510853,0.9177 2.385587,0.9177 0.905955,0 1.821945,-0.2932 2.50824,-0.7688 l 3.909822,-2.4893 c 1.053695,0.5553 2.159238,1.0253 3.311612,1.391 l 1.082128,4.3224 c 0.369072,1.6095 1.512526,3.3785 3.380187,3.3785 h 3.381301 c 1.86766,0 3.27649,-1.7428 3.565837,-3.3529 l 0.976759,-4.3976 c 1.060943,-0.3429 2.078957,-0.7755 3.05683,-1.2817 l 3.8117,2.429 c 0.685738,0.4756 1.601728,0.7689 2.50824,0.7689 0.872504,0 1.73999,-0.2721 2.385587,-0.9177 l 2.392836,-2.3895 c 1.317954,-1.3202 0.876406,-3.3774 0,-4.7745 l -2.350465,-3.9137 c 0.472212,-0.9277 0.881424,-1.8934 1.209798,-2.8946 l 4.393741,-1.0961 c 1.611205,-0.3691 3.380743,-1.5136 3.380743,-3.3774 v -3.3796 c 0,-1.8621 -1.741662,-3.2687 -3.35454,-3.5603 z m 0.649499,6.9416 c 0,0.1327 -0.498972,0.5642 -1.330777,0.7548 l -4.393741,1.0961 -1.449527,0.3624 -0.464964,1.4188 c -0.274853,0.833 -0.627757,1.6776 -1.051465,2.5094 l -0.681835,1.3347 0.771594,1.2828 2.377783,3.9533 c 0.42761,0.6835 0.473326,1.3414 0.383009,1.4317 l -2.39841,2.3928 c -0.115405,0.116 -0.390257,0.1266 -0.469981,0.1266 -0.333392,0 -0.715286,-0.1137 -0.968954,-0.2899 l -0.04014,-0.029 -0.04404,-0.028 -3.813929,-2.4302 -1.314053,-0.8373 -1.383183,0.7169 c -0.871389,0.451 -1.760061,0.8229 -2.64483,1.11 l -1.472943,0.4756 -0.335621,1.5108 -0.975086,4.3971 -0.01227,0.053 -0.0095,0.053 c -0.101467,0.5614 -0.611589,1.1284 -0.904282,1.1284 h -3.381302 c -0.132687,0 -0.565873,-0.4967 -0.757099,-1.3302 l -1.082128,-4.3235 -0.3674,-1.4652 -1.441722,-0.4554 c -0.961706,-0.3033 -1.924526,-0.7081 -2.864489,-1.2043 l -1.390431,-0.7325 -1.325203,0.8446 -3.909821,2.4904 -0.0446,0.027 -0.04237,0.03 c -0.253667,0.1756 -0.633332,0.2899 -0.966723,0.2899 -0.08195,0 -0.355134,-0.011 -0.473884,-0.1294 l -2.391163,-2.3861 c -0.09366,-0.096 -0.04795,-0.7521 0.406425,-1.4769 l 2.473117,-4.1172 0.761002,-1.2666 -0.65842,-1.3252 c -0.39862,-0.7995 -0.713056,-1.5611 -0.963378,-2.3254 l -0.463291,-1.4222 -1.452315,-0.3624 -4.445589,-1.1078 c -0.782188,-0.1789 -1.280602,-0.6105 -1.280602,-0.7431 v -3.3797 c 0,-0.2904 0.569218,-0.8017 1.130074,-0.9026 l 0.05296,-0.01 0.05352,-0.011 4.338547,-0.9633 1.525349,-0.339 0.468309,-1.488 c 0.249765,-0.7933 0.587059,-1.6162 1.032509,-2.5133 l 0.660093,-1.3235 -0.762674,-1.2683 -2.497648,-4.1579 c -0.42538,-0.6808 -0.473326,-1.3375 -0.377434,-1.4312 l 2.38949,-2.3895 c 0.115405,-0.1137 0.370744,-0.1259 0.473326,-0.1259 0.335064,0 0.713056,0.112 0.965051,0.2876 l 0.04404,0.03 0.04627,0.029 3.900901,2.4837 1.324645,0.8407 1.389316,-0.7309 c 0.923795,-0.4861 1.883828,-0.8887 2.853897,-1.1992 l 1.437262,-0.4577 0.365169,-1.4618 1.096066,-4.38309 c 0.181191,-0.7838 0.613819,-1.2806 0.747064,-1.2806 h 3.379072 c 0.292135,0 0.803372,0.5676 0.904282,1.1279 l 0.0095,0.053 0.01227,0.053 0.973413,4.38629 0.335621,1.5098 1.472943,0.4755 c 0.898707,0.291 1.800202,0.6685 2.679953,1.1251 l 1.383742,0.7186 1.315724,-0.8374 3.80501,-2.4235 0.04404,-0.028 0.04237,-0.03 c 0.251437,-0.1756 0.633889,-0.2877 0.966723,-0.2877 0.0814,0 0.354577,0.01 0.473884,0.1277 l 2.388933,2.3856 c 0.09589,0.094 0.05018,0.752 -0.40308,1.4774 l -2.348235,3.9059 -0.773267,1.2862 0.682951,1.3358 c 0.478344,0.9349 0.842398,1.813 1.115578,2.6855 l 0.468309,1.4936 1.527021,0.3389 4.339105,0.9634 0.05296,0.011 0.05575,0.01 c 0.558625,0.1009 1.127843,0.6104 1.127843,0.9026 z m -24.320839,-12.6511 c -5.979858,0 -10.846926,4.8532 -10.846926,10.8185 0,5.9654 4.867068,10.8185 10.846926,10.8185 5.98153,0 10.846925,-4.8531 10.846925,-10.8185 0,-5.9653 -4.865395,-10.8185 -10.846925,-10.8185 z m 0.02286,18.9961 c -4.508587,0 -8.177007,-3.6567 -8.177007,-8.1475 0,-4.4907 3.66842,-8.1474 8.177007,-8.1474 4.510818,0 8.18091,3.6561 8.18091,8.1474 0,4.4913 -3.670092,8.1475 -8.18091,8.1475 z"
               inkscape:connector-curvature="0"
               style="fill:#ffffff;fill-opacity:1;stroke:#ffffff;stroke-width:0.55751055;stroke-opacity:1"
               transform="matrix(2.244518,0,0,2.2164345,205.51766,-2119.1265)" />
            <path
               style="fill:#ffd75e;fill-opacity:1;stroke:none"
               d="m -46.468129,996.87571 c -0.133245,0 -0.567964,0.488 -0.749154,1.2718 l -1.097599,4.39029 -0.365867,1.4635 -1.42862,0.453 c -0.970069,0.3105 -1.933447,0.716 -2.857242,1.2021 l -1.393777,0.7317 -1.324087,-0.8362 -3.902574,-2.4914 -0.03484,-0.035 -0.05227,-0.017 c -0.251995,-0.1756 -0.623157,-0.2962 -0.958221,-0.2962 -0.102582,0 -0.354995,0.01 -0.4704,0.122 l -2.404264,2.4043 c -0.09589,0.094 -0.04209,0.7479 0.383288,1.4286 l 2.491376,4.1465 0.766577,1.2718 -0.662044,1.3241 c -0.445451,0.897 -0.778145,1.7154 -1.02791,2.5088 l -0.4704,1.4983 -1.515731,0.331 -4.338129,0.9757 h -0.05227 l -0.05227,0.017 c -0.560856,0.1009 -1.132444,0.6155 -1.132444,0.9059 v 3.3799 c 0,0.1327 0.489634,0.5528 1.271821,0.7318 l 4.442662,1.115 1.463465,0.3659 0.452978,1.4112 c 0.250322,0.7643 0.577023,1.5351 0.975643,2.3345 l 0.644622,1.3241 -0.749155,1.2544 -2.473953,4.1291 c -0.454371,0.7247 -0.511795,1.385 -0.418133,1.4809 l 2.404264,2.3694 c 0.11875,0.1187 0.388446,0.1394 0.4704,0.1394 0.333391,0 0.704554,-0.1206 0.958221,-0.2962 l 0.05227,-0.017 0.03484,-0.035 3.919996,-2.4914 1.324088,-0.8362 1.393776,0.7317 c 0.939963,0.4962 1.895536,0.8989 2.857242,1.2021 l 1.446043,0.453 0.365866,1.4635 1.080177,4.3207 c 0.191226,0.8335 0.616467,1.3241 0.749155,1.3241 h 3.39733 c 0.292693,0 0.787065,-0.5536 0.888532,-1.115 l 0.01742,-0.052 0.01742,-0.052 0.975644,-4.4078 0.331022,-1.4983 1.463465,-0.4878 c 0.884769,-0.2871 1.776786,-0.6466 2.648175,-1.0976 l 1.393777,-0.7317 1.306665,0.8362 3.815463,2.4391 0.05227,0.035 0.03484,0.017 c 0.253667,0.1762 0.62483,0.2962 0.958221,0.2962 0.07972,0 0.354995,-0.01 0.4704,-0.122 l 2.404264,-2.4043 c 0.09032,-0.09 0.04432,-0.7451 -0.383289,-1.4286 l -2.369419,-3.9548 -0.784,-1.2893 0.679466,-1.324 c 0.423708,-0.8318 0.787902,-1.6759 1.062755,-2.5088 l 0.470399,-1.4287 1.446043,-0.3484 4.390396,-1.0976 c 0.831806,-0.1907 1.324088,-0.6339 1.324088,-0.7666 v -3.3625 c 0,-0.2921 -0.556396,-0.805 -1.115021,-0.9059 l -0.06969,-0.017 h -0.05227 l -4.338129,-0.9757 -1.515732,-0.331 -0.470399,-1.4983 c -0.273181,-0.8725 -0.636677,-1.7481 -1.115021,-2.683 l -0.679466,-1.3415 0.766577,-1.2893 2.351997,-3.9026 c 0.453256,-0.7253 0.496603,-1.3872 0.400711,-1.4809 l -2.386842,-2.3694 c -0.119307,-0.1187 -0.389003,-0.1394 -0.4704,-0.1394 -0.332833,0 -0.724206,0.1206 -0.975643,0.2962 l -0.03484,0.017 -0.05227,0.035 -3.798041,2.4217 -1.324087,0.8362 -1.376355,-0.7143 c -0.879751,-0.4566 -1.784312,-0.8414 -2.683019,-1.1324 l -1.480888,-0.4704 -0.331022,-1.4983 -0.975643,-4.39029 v -0.052 l -0.01742,-0.052 c -0.10091,-0.5603 -0.613819,-1.1325 -0.905955,-1.1325 h -3.379908 z m 1.707376,13.48469 c 5.981531,0 10.854034,4.8538 10.854034,10.8192 0,5.9654 -4.872503,10.8192 -10.854034,10.8192 -5.979858,0 -10.836611,-4.8538 -10.836611,-10.8192 0,-5.9654 4.856753,-10.8192 10.836611,-10.8192 z"
               id="path60915"
               inkscape:connector-curvature="0"
               transform="matrix(2.244518,0,0,2.2164345,205.51766,-2119.1265)" />
            <text
               xml:space="preserve"
               style="font-style:normal;font-variant:normal;font-weight:bold;font-stretch:normal;font-size:12.8365612px;line-height:0%;font-family:'Alegreya Sans SC';-inkscape-font-specification:'Alegreya Sans SC, Bold';text-align:start;letter-spacing:0px;word-spacing:0px;writing-mode:lr-tb;text-anchor:start;fill:#ffd75e;fill-opacity:1;stroke:none;stroke-width:1.06971347px;stroke-linecap:butt;stroke-linejoin:miter;stroke-opacity:1"
               x="64.431969"
               y="246.23753"
               id="text4170"><tspan
                 sodipodi:role="line"
                 id="tspan4172"
                 x="64.431969"
                 y="246.23753"
                 style="font-style:normal;font-variant:normal;font-weight:bold;font-stretch:normal;font-size:15.32744503px;line-height:125%;font-family:'Alegreya Sans SC';-inkscape-font-specification:'Alegreya Sans SC, Bold';text-align:start;writing-mode:lr-tb;text-anchor:start;fill:#ffd75e;fill-opacity:1;stroke-width:1.06971347px">Controls<tspan
   style="fill:#008080;fill-opacity:1"
   id="tspan6193">.</tspan></tspan></text>
            <text
               xml:space="preserve"
               style="font-style:normal;font-variant:normal;font-weight:bold;font-stretch:normal;font-size:12.8365612px;line-height:0%;font-family:'Alegreya Sans SC';-inkscape-font-specification:'Alegreya Sans SC, Bold';text-align:start;letter-spacing:0px;word-spacing:0px;writing-mode:lr-tb;text-anchor:start;fill:#008080;fill-opacity:1;stroke:none;stroke-width:1.06971347px;stroke-linecap:butt;stroke-linejoin:miter;stroke-opacity:1"
               x="3.2456443"
               y="245.76604"
               id="text4170-8"><tspan
                 sodipodi:role="line"
                 id="tspan4172-1"
                 x="3.2456443"
                 y="245.76604"
                 style="font-style:normal;font-variant:normal;font-weight:bold;font-stretch:normal;font-size:15.32744503px;line-height:125%;font-family:'Alegreya Sans SC';-inkscape-font-specification:'Alegreya Sans SC, Bold';text-align:start;writing-mode:lr-tb;text-anchor:start;fill:#008080;fill-opacity:1;stroke-width:1.06971347px">Moves<tspan
   style="fill:#ffd75e;fill-opacity:1"
   id="tspan6189">.</tspan></tspan></text>
          </g>
        </g>
      </g>
    </g>
  </g>
</svg>
