<?xml version="1.0" encoding="UTF-8" standalone="no"?>
<!-- Created with Inkscape (http://www.inkscape.org/) -->

<svg
   xmlns:dc="http://purl.org/dc/elements/1.1/"
   xmlns:cc="http://creativecommons.org/ns#"
   xmlns:rdf="http://www.w3.org/1999/02/22-rdf-syntax-ns#"
   xmlns:svg="http://www.w3.org/2000/svg"
   xmlns="http://www.w3.org/2000/svg"
   xmlns:sodipodi="http://sodipodi.sourceforge.net/DTD/sodipodi-0.dtd"
   xmlns:inkscape="http://www.inkscape.org/namespaces/inkscape"
   width="210mm"
   height="190mm"
   viewBox="0 0 210 190"
   version="1.1"
   id="svg4932"
   inkscape:version="0.92.4 (f8dce91, 2019-08-02)"
   sodipodi:docname="machinekit-hal.svg"
   inkscape:export-filename="/home/mars/mkbitmap.png"
   inkscape:export-xdpi="54.791428"
   inkscape:export-ydpi="54.791428">
  <defs
     id="defs4926" />
  <sodipodi:namedview
     id="base"
     pagecolor="#ffffff"
     bordercolor="#666666"
     borderopacity="1.0"
     inkscape:pageopacity="0.0"
     inkscape:pageshadow="2"
     inkscape:zoom="0.98994949"
     inkscape:cx="194.0385"
     inkscape:cy="560"
     inkscape:document-units="mm"
     inkscape:current-layer="g6269"
     showgrid="false"
     inkscape:window-width="2560"
     inkscape:window-height="1361"
     inkscape:window-x="0"
     inkscape:window-y="0"
     inkscape:window-maximized="1"
     units="mm"
     width="150mm" />
  <metadata
     id="metadata4929">
    <rdf:RDF>
      <cc:Work
         rdf:about="">
        <dc:format>image/svg+xml</dc:format>
        <dc:type
           rdf:resource="http://purl.org/dc/dcmitype/StillImage" />
        <dc:title></dc:title>
      </cc:Work>
    </rdf:RDF>
  </metadata>
  <g
     inkscape:label="Layer 1"
     inkscape:groupmode="layer"
     id="layer1"
     transform="translate(0,-107)">
    <g
       id="g6229"
       transform="translate(1.3329554e-6,44.170164)">
      <g
         id="g4899"
         transform="matrix(2.244518,0,0,2.2164345,205.51766,-2119.1265)" />
      <g
         id="g6269"
         transform="translate(0,0.52915989)">
        <g
           aria-label="Things."
           style="font-style:normal;font-variant:normal;font-weight:bold;font-stretch:normal;font-size:12.8365612px;line-height:0%;font-family:'Alegreya Sans SC';-inkscape-font-specification:'Alegreya Sans SC, Bold';text-align:start;letter-spacing:0px;word-spacing:0px;writing-mode:lr-tb;text-anchor:start;fill:#008080;fill-opacity:1;stroke:none;stroke-width:1.06971347px;stroke-linecap:butt;stroke-linejoin:miter;stroke-opacity:1"
           id="text4174">
          <path
             d="m 144.00541,235.06377 h 10.29813 v 2.17787 h -3.70463 v 8.99589 h -2.88138 v -8.99589 h -3.71212 z"
             style="font-style:normal;font-variant:normal;font-weight:bold;font-stretch:normal;font-size:15.32744503px;line-height:125%;font-family:'Alegreya Sans SC';-inkscape-font-specification:'Alegreya Sans SC, Bold';text-align:start;writing-mode:lr-tb;text-anchor:start;fill:#008080;fill-opacity:1;stroke-width:1.06971347px"
             id="path916" />
          <path
             d="m 164.09275,241.13337 v 5.10416 h -2.69428 v -0.83073 -3.061 q 0,-1.10016 -0.0524,-1.51179 -0.0449,-0.41163 -0.16465,-0.60621 -0.15716,-0.26195 -0.42659,-0.40414 -0.26943,-0.14969 -0.6137,-0.14969 -0.83822,0 -1.3172,0.65112 -0.47898,0.64363 -0.47898,1.7887 v 4.12374 h -2.67931 v -11.64526 h 2.67931 v 4.49046 q 0.60621,-0.73344 1.28726,-1.07771 0.68106,-0.35175 1.50431,-0.35175 1.45191,0 2.20032,0.8906 0.7559,0.89061 0.7559,2.5895 z"
             style="font-style:normal;font-variant:normal;font-weight:bold;font-stretch:normal;font-size:15.32744503px;line-height:125%;font-family:'Alegreya Sans SC';-inkscape-font-specification:'Alegreya Sans SC, Bold';text-align:start;writing-mode:lr-tb;text-anchor:start;fill:#008080;fill-opacity:1;stroke-width:1.06971347px"
             id="path918" />
          <path
             d="m 166.59244,237.85534 h 2.67931 v 8.38219 h -2.67931 z m 0,-3.26307 h 2.67931 v 2.18536 h -2.67931 z"
             style="font-style:normal;font-variant:normal;font-weight:bold;font-stretch:normal;font-size:15.32744503px;line-height:125%;font-family:'Alegreya Sans SC';-inkscape-font-specification:'Alegreya Sans SC, Bold';text-align:start;writing-mode:lr-tb;text-anchor:start;fill:#008080;fill-opacity:1;stroke-width:1.06971347px"
             id="path920" />
          <path
             d="m 180.28835,241.13337 v 5.10416 h -2.69428 v -0.83073 -3.07597 q 0,-1.08519 -0.0524,-1.49682 -0.0449,-0.41163 -0.16465,-0.60621 -0.15716,-0.26195 -0.42659,-0.40414 -0.26943,-0.14969 -0.6137,-0.14969 -0.83822,0 -1.3172,0.65112 -0.47898,0.64363 -0.47898,1.7887 v 4.12374 h -2.67931 v -8.38219 h 2.67931 v 1.22739 q 0.60621,-0.73344 1.28726,-1.07771 0.68106,-0.35175 1.50431,-0.35175 1.45191,0 2.20032,0.8906 0.7559,0.89061 0.7559,2.5895 z"
             style="font-style:normal;font-variant:normal;font-weight:bold;font-stretch:normal;font-size:15.32744503px;line-height:125%;font-family:'Alegreya Sans SC';-inkscape-font-specification:'Alegreya Sans SC, Bold';text-align:start;writing-mode:lr-tb;text-anchor:start;fill:#008080;fill-opacity:1;stroke-width:1.06971347px"
             id="path922" />
          <path
             d="m 188.49093,244.81555 q -0.55383,0.73345 -1.21991,1.07771 -0.66609,0.34427 -1.54173,0.34427 -1.53424,0 -2.53711,-1.20494 -1.00287,-1.21242 -1.00287,-3.08345 0,-1.87851 1.00287,-3.07596 1.00287,-1.20495 2.53711,-1.20495 0.87564,0 1.54173,0.34427 0.66608,0.34427 1.21991,1.0852 v -1.24236 h 2.69427 v 7.53649 q 0,2.02071 -1.27978,3.08345 -1.27229,1.07023 -3.69714,1.07023 -0.78584,0 -1.51928,-0.11975 -0.73344,-0.11974 -1.47437,-0.36672 v -2.08806 q 0.70351,0.40414 1.37708,0.59872 0.67357,0.20207 1.35462,0.20207 1.3172,0 1.9309,-0.57627 0.6137,-0.57628 0.6137,-1.80367 z m -1.76625,-5.21642 q -0.83074,0 -1.29475,0.6137 -0.46402,0.6137 -0.46402,1.73631 0,1.15255 0.44905,1.75128 0.44905,0.59125 1.30972,0.59125 0.83822,0 1.30223,-0.6137 0.46402,-0.6137 0.46402,-1.72883 0,-1.12261 -0.46402,-1.73631 -0.46401,-0.6137 -1.30223,-0.6137 z"
             style="font-style:normal;font-variant:normal;font-weight:bold;font-stretch:normal;font-size:15.32744503px;line-height:125%;font-family:'Alegreya Sans SC';-inkscape-font-specification:'Alegreya Sans SC, Bold';text-align:start;writing-mode:lr-tb;text-anchor:start;fill:#008080;fill-opacity:1;stroke-width:1.06971347px"
             id="path924" />
          <path
             d="m 200.3233,238.11728 v 2.03568 q -0.86067,-0.35924 -1.66147,-0.53886 -0.8008,-0.17962 -1.51179,-0.17962 -0.76338,0 -1.13758,0.19459 -0.36673,0.1871 -0.36673,0.58376 0,0.32182 0.27692,0.49395 0.28439,0.17214 1.01035,0.25446 l 0.4715,0.0674 q 2.05813,0.26194 2.76912,0.86067 0.71099,0.59873 0.71099,1.87851 0,1.33965 -0.98791,2.01322 -0.9879,0.67357 -2.94873,0.67357 -0.83074,0 -1.72135,-0.13471 -0.88312,-0.12723 -1.81863,-0.38917 v -2.03568 q 0.8008,0.38917 1.63902,0.58376 0.8457,0.19459 1.71386,0.19459 0.78583,0 1.18248,-0.21704 0.39666,-0.21704 0.39666,-0.64364 0,-0.35923 -0.27691,-0.53137 -0.26943,-0.17962 -1.0852,-0.27691 l -0.47149,-0.0599 q -1.7887,-0.22453 -2.50718,-0.83074 -0.71847,-0.60621 -0.71847,-1.84109 0,-1.33217 0.91306,-1.9758 0.91306,-0.64363 2.79905,-0.64363 0.74093,0 1.5567,0.11226 0.81576,0.11226 1.77373,0.35175 z"
             style="font-style:normal;font-variant:normal;font-weight:bold;font-stretch:normal;font-size:15.32744503px;line-height:125%;font-family:'Alegreya Sans SC';-inkscape-font-specification:'Alegreya Sans SC, Bold';text-align:start;writing-mode:lr-tb;text-anchor:start;fill:#008080;fill-opacity:1;stroke-width:1.06971347px"
             id="path926" />
          <path
             d="m 203.18222,243.34119 h 2.69428 v 2.89634 h -2.69428 z"
             style="fill:#ffd75e;fill-opacity:1"
             id="path928" />
        </g>
        <g
           id="g960"
           inkscape:export-filename="/home/mars/mk.png"
           inkscape:export-xdpi="88.105103"
           inkscape:export-ydpi="88.105103">
          <circle
             r="78.508148"
             cy="144.26672"
             cx="105"
             id="path5481"
             style="fill:#008080;fill-opacity:1;fill-rule:evenodd;stroke:#ffffff;stroke-width:1.40546155;stroke-linecap:butt;stroke-miterlimit:4;stroke-dasharray:none;stroke-opacity:1;paint-order:stroke markers fill" />
          <g
             id="g954">
            <path
               id="path60921"
               d="m 158.18205,132.92921 -9.73794,-2.13155 c -0.76082,-2.39353 -1.75063,-4.68576 -2.89436,-6.89134 l 5.27191,-8.66227 c 1.96711,-3.10278 2.95817,-7.66243 0,-10.58724 l -5.37076,-5.296165 c -1.44906,-1.43093 -3.39615,-2.03646 -5.3545,-2.03646 -2.03468,0 -4.09064,0.652518 -5.62979,1.705325 l -8.54041,5.37019 c -2.21613,-1.1357 -4.52986,-2.10317 -6.93995,-2.87427 l -2.18859,-9.72214 c -0.64945,-3.569789 -3.81034,-7.430153 -8.00359,-7.430153 h -7.58439 c -4.191989,0 -6.760999,3.919543 -7.591889,7.489554 l -2.43261,9.604669 c -2.57526,0.80944 -5.04041,1.84363 -7.39418,3.06577 l -8.754394,-5.50495 c -1.536649,-1.054136 -3.595108,-1.705325 -5.62979,-1.705325 -1.958351,0 -3.901686,0.60553 -5.354495,2.03646 l -5.363254,5.296165 c -2.966931,2.92481 -1.975869,7.48579 0,10.58746 l 5.542196,9.11686 c -1.039865,2.06838 -1.963356,4.20259 -2.675369,6.43542 l -9.737947,2.13155 c -3.615128,0.64498 -7.529328,3.76262 -7.529328,7.89472 v 7.49088 c 0,4.13077 3.973013,6.6677 7.588141,7.48578 l 9.861829,2.42922 c 0.684483,2.05862 1.532895,4.04566 2.496429,5.96464 l -5.545951,9.12551 c -1.970864,3.09791 -2.961926,7.65645 0,10.58259 l 5.367009,5.29594 c 1.449054,1.43094 3.391137,2.03403 5.354493,2.03403 2.033432,0 4.089388,-0.64986 5.62979,-1.704 l 8.775661,-5.51737 c 2.365039,1.23079 4.84645,2.27251 7.43298,3.08306 l 2.42885,9.58032 c 0.82839,3.56735 3.39489,7.48822 7.586889,7.48822 h 7.58939 c 4.192,0 7.35415,-3.8628 8.00359,-7.43148 l 2.19235,-9.74699 c 2.38131,-0.76002 4.66626,-1.71885 6.86111,-2.84081 l 8.55543,5.38372 c 1.53915,1.05414 3.59511,1.70422 5.62979,1.70422 1.95835,0 3.90544,-0.60309 5.3545,-2.03402 l 5.37076,-5.29617 c 2.95817,-2.92614 1.96711,-7.48579 0,-10.58237 l -5.27566,-8.67446 c 1.05989,-2.05619 1.97837,-4.1966 2.71541,-6.41569 l 9.86183,-2.42943 c 3.61638,-0.81809 7.58814,-3.3548 7.58814,-7.48579 v -7.49066 c 0,-4.12723 -3.90919,-7.24486 -7.52933,-7.89117 z m 1.45782,15.3856 c 0,0.29412 -1.11995,1.25051 -2.98696,1.67296 l -9.86183,2.42944 -3.25349,0.80323 -1.04362,3.14468 c -0.61691,1.84629 -1.40901,3.71829 -2.36003,5.56192 l -1.53039,2.95827 1.73186,2.84325 5.33697,8.76223 c 0.95978,1.51493 1.06239,2.97312 0.85967,3.17327 l -5.38327,5.30348 c -0.25903,0.25711 -0.87594,0.2806 -1.05488,0.2806 -0.7483,0 -1.60547,-0.25201 -2.17484,-0.64254 l -0.0901,-0.0643 -0.0988,-0.0621 -8.56043,-5.38638 -2.94942,-1.85582 -3.10458,1.58896 c -1.95584,0.99961 -3.95048,1.82391 -5.93636,2.46025 l -3.30605,1.05413 -0.75331,3.34859 -2.1886,9.74588 -0.0275,0.11748 -0.0213,0.11747 c -0.22774,1.2443 -1.37272,2.50102 -2.02968,2.50102 h -7.58939 c -0.29782,0 -1.270109,-1.1009 -1.699319,-2.9483 l -2.42886,-9.58275 -0.82464,-3.24752 -3.23597,-1.00937 c -2.15856,-0.67224 -4.31963,-1.56946 -6.42939,-2.66925 l -3.12085,-1.62354 -2.97444,1.872 -8.775666,5.51981 -0.100105,0.0598 -0.0951,0.0665 c -0.56936,0.3892 -1.421525,0.64254 -2.169828,0.64254 -0.183938,0 -0.797104,-0.0244 -1.063641,-0.28681 l -5.367008,-5.28863 c -0.210222,-0.21278 -0.107625,-1.66698 0.912228,-3.27345 l 5.550956,-9.12551 1.708082,-2.80733 -1.477835,-2.93722 c -0.89471,-1.77204 -1.600467,-3.46008 -2.162319,-5.1541 l -1.039865,-3.15221 -3.259748,-0.80324 -9.978204,-2.45536 c -1.755635,-0.39652 -2.874334,-1.35314 -2.874334,-1.64704 v -7.49088 c 0,-0.64365 1.27762,-1.77691 2.536471,-2.00055 l 0.11887,-0.0222 0.120126,-0.0244 9.737947,-2.13509 3.423674,-0.75137 1.051128,-3.29805 c 0.560602,-1.7583 1.317664,-3.58221 2.317485,-5.57057 l 1.48159,-2.93345 -1.711835,-2.8111 -5.606016,-9.21572 c -0.954773,-1.50895 -1.062389,-2.96448 -0.847158,-3.17216 l 5.363254,-5.29617 c 0.259028,-0.25201 0.832141,-0.27905 1.062388,-0.27905 0.752058,0 1.600467,0.24824 2.166075,0.63745 l 0.09885,0.0665 0.103854,0.0643 8.755644,5.50496 2.97319,1.86335 3.11834,-1.61999 c 2.07348,-1.07741 4.22829,-1.96974 6.40563,-2.65795 l 3.22596,-1.01446 0.81962,-3.23998 2.46014,-9.71483 c 0.40669,-1.737241 1.377729,-2.838366 1.676799,-2.838366 h 7.58439 c 0.6557,0 1.80318,1.258048 2.02968,2.499916 l 0.0213,0.117471 0.0275,0.117471 2.18484,9.721918 0.75331,3.34637 3.30605,1.05392 c 2.01716,0.64498 4.04058,1.48169 6.0152,2.49371 l 3.10583,1.59273 2.95317,-1.85604 8.54041,-5.37153 0.0988,-0.0621 0.0951,-0.0665 c 0.56436,-0.38921 1.42278,-0.63767 2.16983,-0.63767 0.1827,0 0.79585,0.0222 1.06364,0.28304 l 5.362,5.28752 c 0.21523,0.20835 0.11263,1.66676 -0.90472,3.27456 l -5.27065,8.65717 -1.73561,2.85078 1.53289,2.96071 c 1.07365,2.07215 1.89078,4.0184 2.50394,5.95224 l 1.05112,3.31047 3.42743,0.75115 9.7392,2.13531 0.11887,0.0244 0.12513,0.0222 c 1.25385,0.22364 2.53147,1.35292 2.53147,2.00056 z m -54.58856,-28.04034 c -13.421899,0 -24.346129,10.7568 -24.346129,23.9785 0,13.22192 10.92423,23.9785 24.346129,23.9785 13.42565,0 24.34611,-10.75658 24.34611,-23.9785 0,-13.2217 -10.92046,-23.9785 -24.34611,-23.9785 z m 0.0513,42.10361 c -10.119609,0 -18.353439,-8.10483 -18.353439,-18.0584 0,-9.95334 8.23383,-18.05817 18.353439,-18.05817 10.12461,0 18.3622,8.1035 18.3622,18.05817 0,9.95468 -8.23759,18.0584 -18.3622,18.0584 z"
               inkscape:connector-curvature="0"
               style="fill:#ffffff;fill-opacity:1;stroke:#ffffff;stroke-width:1.24348938;stroke-opacity:1" />
            <path
               style="fill:#ffd75e;fill-opacity:1;stroke:none;stroke-width:2.23043203"
               d="m 101.20689,90.379156 c -0.29907,0 -1.274815,1.08162 -1.681495,2.818861 l -2.46358,9.730793 -0.8212,3.24375 -3.20656,1.00404 c -2.17734,0.68821 -4.33966,1.58697 -6.41313,2.66438 l -3.12836,1.62177 -2.97194,-1.85339 -8.759394,-5.52202 -0.0782,-0.0776 -0.117321,-0.0377 c -0.565607,-0.3892 -1.398687,-0.6565 -2.150744,-0.6565 -0.230247,0 -0.796793,0.0222 -1.055822,0.2704 l -5.396413,5.32897 c -0.215227,0.20835 -0.09447,1.65768 0.860296,3.1664 l 5.591939,9.19044 1.720596,2.81886 -1.48597,2.93478 c -0.999823,1.98814 -1.746561,3.80207 -2.307163,5.56059 l -1.055821,3.32088 -3.402085,0.73364 -9.737009,2.16258 h -0.117321 l -0.117321,0.0377 c -1.258851,0.22364 -2.541791,1.36421 -2.541791,2.00787 v 7.49132 c 0,0.29412 1.098992,1.22525 2.854625,1.62199 l 9.971635,2.47133 3.284774,0.81099 1.016717,3.12783 c 0.561852,1.69402 1.295138,3.40245 2.189848,5.17427 l 1.446866,2.93478 -1.681492,2.78029 -5.552832,9.15188 c -1.019844,1.60625 -1.148733,3.06977 -0.938507,3.28232 l 5.396414,5.25162 c 0.266536,0.26309 0.871874,0.30897 1.055821,0.30897 0.748302,0 1.581384,-0.2673 2.150744,-0.65651 l 0.117321,-0.0377 0.0782,-0.0776 8.7985,-5.52203 2.97194,-1.85338 3.12836,1.62177 c 2.10976,1.09979 4.25456,1.99235 6.41313,2.66437 l 3.24567,1.00405 0.82119,3.24375 2.42448,9.57655 c 0.42921,1.8474 1.383675,2.93478 1.681495,2.93478 h 7.62537 c 0.65695,0 1.76658,-1.22702 1.99432,-2.47132 l 0.0391,-0.11526 0.0391,-0.11525 2.18985,-9.7696 0.74299,-3.32089 3.28477,-1.08117 c 1.98588,-0.63634 3.98803,-1.43315 5.94388,-2.43276 l 3.12835,-1.62177 2.93284,1.85338 8.56387,5.40611 0.11732,0.0776 0.0782,0.0377 c 0.56936,0.39054 1.40245,0.65651 2.15075,0.65651 0.17893,0 0.79679,-0.0222 1.05582,-0.2704 l 5.39641,-5.32898 c 0.20273,-0.19948 0.0995,-1.65146 -0.8603,-3.16639 l -5.3182,-8.76556 -1.7597,-2.85765 1.52507,-2.93456 c 0.95102,-1.84363 1.76846,-3.71452 2.38537,-5.56059 l 1.05582,-3.16662 3.24567,-0.7722 9.85433,-2.43276 c 1.867,-0.42268 2.97194,-1.405 2.97194,-1.69912 v -7.45276 c 0,-0.64742 -1.24885,-1.78423 -2.50269,-2.00787 l -0.15642,-0.0377 h -0.11732 l -9.73701,-2.16258 -3.40209,-0.73364 -1.05582,-3.32088 c -0.61316,-1.93384 -1.42903,-3.87455 -2.50268,-5.94669 l -1.52507,-2.97335 1.72059,-2.85764 5.2791,-8.64986 c 1.01734,-1.60758 1.11464,-3.07463 0.8994,-3.28231 l -5.35731,-5.25162 c -0.26778,-0.26309 -0.87312,-0.30897 -1.05582,-0.30897 -0.74705,0 -1.62549,0.2673 -2.18985,0.6565 l -0.0782,0.0377 -0.11733,0.0776 -8.52477,5.36754 -2.97193,1.85338 -3.08926,-1.5832 c -1.97461,-1.01202 -4.00492,-1.86491 -6.02208,-2.50989 l -3.32388,-1.04261 -0.74299,-3.32088 -2.18984,-9.730795 v -0.115254 l -0.0391,-0.115255 c -0.2265,-1.241868 -1.37773,-2.510112 -2.03344,-2.510112 h -7.58626 z m 3.83223,29.887934 c 13.42566,0 24.36208,10.75812 24.36208,23.98004 0,13.22191 -10.93642,23.98004 -24.36208,23.98004 -13.421905,0 -24.322965,-10.75813 -24.322965,-23.98004 0,-13.22192 10.90106,-23.98004 24.322965,-23.98004 z"
               id="path60915"
               inkscape:connector-curvature="0" />
          </g>
        </g>
        <g
           aria-label="Controls."
           style="font-style:normal;font-variant:normal;font-weight:bold;font-stretch:normal;font-size:12.8365612px;line-height:0%;font-family:'Alegreya Sans SC';-inkscape-font-specification:'Alegreya Sans SC, Bold';text-align:start;letter-spacing:0px;word-spacing:0px;writing-mode:lr-tb;text-anchor:start;fill:#ffd75e;fill-opacity:1;stroke:none;stroke-width:1.06971347px;stroke-linecap:butt;stroke-linejoin:miter;stroke-opacity:1"
           id="text4170">
          <path
             d="m 76.474337,245.62384 q -0.793315,0.41162 -1.653987,0.62118 -0.860672,0.20955 -1.796185,0.20955 -2.791571,0 -4.423105,-1.55669 -1.631535,-1.56418 -1.631535,-4.236 0,-2.67931 1.631535,-4.23601 1.631534,-1.56417 4.423105,-1.56417 0.935513,0 1.796185,0.20955 0.860672,0.20956 1.653987,0.62118 v 2.31259 q -0.800799,-0.54634 -1.579146,-0.8008 -0.778347,-0.25446 -1.639019,-0.25446 -1.541725,0 -2.424849,0.9879 -0.883125,0.9879 -0.883125,2.72422 0,1.72882 0.883125,2.71673 0.883124,0.9879 2.424849,0.9879 0.860672,0 1.639019,-0.25446 0.778347,-0.25446 1.579146,-0.8008 z"
             style="font-style:normal;font-variant:normal;font-weight:bold;font-stretch:normal;font-size:15.32744503px;line-height:125%;font-family:'Alegreya Sans SC';-inkscape-font-specification:'Alegreya Sans SC, Bold';text-align:start;writing-mode:lr-tb;text-anchor:start;fill:#ffd75e;fill-opacity:1;stroke-width:1.06971347px"
             id="path931" />
          <path
             d="m 82.738532,239.5692 q -0.890609,0 -1.362107,0.64363 -0.464015,0.63615 -0.464015,1.84109 0,1.20494 0.464015,1.84857 0.471498,0.63615 1.362107,0.63615 0.87564,0 1.339654,-0.63615 0.464015,-0.64363 0.464015,-1.84857 0,-1.20494 -0.464015,-1.84109 -0.464014,-0.64363 -1.339654,-0.64363 z m 0,-1.91593 q 2.162906,0 3.375331,1.16752 1.219909,1.16752 1.219909,3.23313 0,2.06561 -1.219909,3.23313 -1.212425,1.16752 -3.375331,1.16752 -2.170391,0 -3.397784,-1.16752 -1.219909,-1.16752 -1.219909,-3.23313 0,-2.06561 1.219909,-3.23313 1.227393,-1.16752 3.397784,-1.16752 z"
             style="font-style:normal;font-variant:normal;font-weight:bold;font-stretch:normal;font-size:15.32744503px;line-height:125%;font-family:'Alegreya Sans SC';-inkscape-font-specification:'Alegreya Sans SC, Bold';text-align:start;writing-mode:lr-tb;text-anchor:start;fill:#ffd75e;fill-opacity:1;stroke-width:1.06971347px"
             id="path933" />
          <path
             d="m 97.714224,241.13337 v 5.10416 h -2.694277 v -0.83073 -3.07597 q 0,-1.08519 -0.05239,-1.49682 -0.0449,-0.41163 -0.16465,-0.60621 -0.157167,-0.26195 -0.426594,-0.40414 -0.269428,-0.14969 -0.613697,-0.14969 -0.83822,0 -1.317202,0.65112 -0.478983,0.64363 -0.478983,1.7887 v 4.12374 h -2.679309 v -8.38219 h 2.679309 v 1.22739 q 0.606213,-0.73344 1.287266,-1.07771 0.681053,-0.35175 1.504305,-0.35175 1.451916,0 2.200326,0.8906 0.755895,0.89061 0.755895,2.5895 z"
             style="font-style:normal;font-variant:normal;font-weight:bold;font-stretch:normal;font-size:15.32744503px;line-height:125%;font-family:'Alegreya Sans SC';-inkscape-font-specification:'Alegreya Sans SC, Bold';text-align:start;writing-mode:lr-tb;text-anchor:start;fill:#ffd75e;fill-opacity:1;stroke-width:1.06971347px"
             id="path935" />
          <path
             d="m 103.1402,235.47539 v 2.37995 h 2.76164 v 1.91593 h -2.76164 v 3.55495 q 0,0.58376 0.23201,0.79331 0.23201,0.20207 0.92054,0.20207 h 1.37708 v 1.91593 h -2.29762 q -1.58663,0 -2.25272,-0.6586 -0.6586,-0.66608 -0.6586,-2.25271 v -3.55495 h -1.332168 v -1.91593 h 1.332168 v -2.37995 z"
             style="font-style:normal;font-variant:normal;font-weight:bold;font-stretch:normal;font-size:15.32744503px;line-height:125%;font-family:'Alegreya Sans SC';-inkscape-font-specification:'Alegreya Sans SC, Bold';text-align:start;writing-mode:lr-tb;text-anchor:start;fill:#ffd75e;fill-opacity:1;stroke-width:1.06971347px"
             id="path937" />
          <path
             d="m 113.77511,240.13799 q -0.35175,-0.16465 -0.70351,-0.23949 -0.34426,-0.0823 -0.69602,-0.0823 -1.0328,0 -1.59411,0.66609 -0.55382,0.6586 -0.55382,1.89348 v 3.86179 h -2.67931 v -8.38219 h 2.67931 v 1.37707 q 0.5164,-0.82325 1.18248,-1.19745 0.67357,-0.38169 1.60909,-0.38169 0.13471,0 0.29188,0.015 0.15716,0.007 0.45653,0.0449 z"
             style="font-style:normal;font-variant:normal;font-weight:bold;font-stretch:normal;font-size:15.32744503px;line-height:125%;font-family:'Alegreya Sans SC';-inkscape-font-specification:'Alegreya Sans SC, Bold';text-align:start;writing-mode:lr-tb;text-anchor:start;fill:#ffd75e;fill-opacity:1;stroke-width:1.06971347px"
             id="path939" />
          <path
             d="m 119.11128,239.5692 q -0.89061,0 -1.36211,0.64363 -0.46401,0.63615 -0.46401,1.84109 0,1.20494 0.46401,1.84857 0.4715,0.63615 1.36211,0.63615 0.87564,0 1.33965,-0.63615 0.46402,-0.64363 0.46402,-1.84857 0,-1.20494 -0.46402,-1.84109 -0.46401,-0.64363 -1.33965,-0.64363 z m 0,-1.91593 q 2.1629,0 3.37533,1.16752 1.21991,1.16752 1.21991,3.23313 0,2.06561 -1.21991,3.23313 -1.21243,1.16752 -3.37533,1.16752 -2.17039,0 -3.39779,-1.16752 -1.21991,-1.16752 -1.21991,-3.23313 0,-2.06561 1.21991,-3.23313 1.2274,-1.16752 3.39779,-1.16752 z"
             style="font-style:normal;font-variant:normal;font-weight:bold;font-stretch:normal;font-size:15.32744503px;line-height:125%;font-family:'Alegreya Sans SC';-inkscape-font-specification:'Alegreya Sans SC, Bold';text-align:start;writing-mode:lr-tb;text-anchor:start;fill:#ffd75e;fill-opacity:1;stroke-width:1.06971347px"
             id="path941" />
          <path
             d="m 125.65987,234.59227 h 2.67931 v 11.64526 h -2.67931 z"
             style="font-style:normal;font-variant:normal;font-weight:bold;font-stretch:normal;font-size:15.32744503px;line-height:125%;font-family:'Alegreya Sans SC';-inkscape-font-specification:'Alegreya Sans SC, Bold';text-align:start;writing-mode:lr-tb;text-anchor:start;fill:#ffd75e;fill-opacity:1;stroke-width:1.06971347px"
             id="path943" />
          <path
             d="m 137.47727,238.11728 v 2.03568 q -0.86067,-0.35924 -1.66147,-0.53886 -0.8008,-0.17962 -1.51179,-0.17962 -0.76338,0 -1.13759,0.19459 -0.36672,0.1871 -0.36672,0.58376 0,0.32182 0.27691,0.49395 0.2844,0.17214 1.01036,0.25446 l 0.4715,0.0674 q 2.05813,0.26194 2.76912,0.86067 0.71099,0.59873 0.71099,1.87851 0,1.33965 -0.98791,2.01322 -0.9879,0.67357 -2.94873,0.67357 -0.83074,0 -1.72135,-0.13471 -0.88312,-0.12723 -1.81863,-0.38917 v -2.03568 q 0.80079,0.38917 1.63901,0.58376 0.84571,0.19459 1.71386,0.19459 0.78584,0 1.18249,-0.21704 0.39666,-0.21704 0.39666,-0.64364 0,-0.35923 -0.27691,-0.53137 -0.26943,-0.17962 -1.0852,-0.27691 l -0.4715,-0.0599 q -1.7887,-0.22453 -2.50717,-0.83074 -0.71847,-0.60621 -0.71847,-1.84109 0,-1.33217 0.91306,-1.9758 0.91306,-0.64363 2.79905,-0.64363 0.74093,0 1.5567,0.11226 0.81576,0.11226 1.77373,0.35175 z"
             style="font-style:normal;font-variant:normal;font-weight:bold;font-stretch:normal;font-size:15.32744503px;line-height:125%;font-family:'Alegreya Sans SC';-inkscape-font-specification:'Alegreya Sans SC, Bold';text-align:start;writing-mode:lr-tb;text-anchor:start;fill:#ffd75e;fill-opacity:1;stroke-width:1.06971347px"
             id="path945" />
          <path
             d="m 140.3362,243.34119 h 2.69427 v 2.89634 h -2.69427 z"
             style="fill:#008080;fill-opacity:1"
             id="path947" />
        </g>
        <g
           aria-label="Moves."
           style="font-style:normal;font-variant:normal;font-weight:bold;font-stretch:normal;font-size:12.8365612px;line-height:0%;font-family:'Alegreya Sans SC';-inkscape-font-specification:'Alegreya Sans SC, Bold';text-align:start;letter-spacing:0px;word-spacing:0px;writing-mode:lr-tb;text-anchor:start;fill:#008080;fill-opacity:1;stroke:none;stroke-width:1.06971347px;stroke-linecap:butt;stroke-linejoin:miter;stroke-opacity:1"
           id="text4170-8">
          <path
             d="m 5.9478312,234.59227 h 3.667211 l 2.5445958,5.9798 2.559563,-5.9798 h 3.659727 v 11.17377 h -2.724214 v -8.17264 l -2.574532,6.0247 h -1.826121 l -2.5745318,-6.0247 v 8.17264 h -2.731698 z"
             style="font-style:normal;font-variant:normal;font-weight:bold;font-stretch:normal;font-size:15.32744503px;line-height:125%;font-family:'Alegreya Sans SC';-inkscape-font-specification:'Alegreya Sans SC, Bold';text-align:start;writing-mode:lr-tb;text-anchor:start;fill:#008080;fill-opacity:1;stroke-width:1.06971347px"
             id="path950" />
          <path
             d="m 25.084685,239.0977 q -0.890608,0 -1.362107,0.64363 -0.464014,0.63615 -0.464014,1.84109 0,1.20494 0.464014,1.84858 0.471499,0.63615 1.362107,0.63615 0.875641,0 1.339655,-0.63615 0.464014,-0.64364 0.464014,-1.84858 0,-1.20494 -0.464014,-1.84109 -0.464014,-0.64363 -1.339655,-0.64363 z m 0,-1.91593 q 2.162906,0 3.375331,1.16752 1.219909,1.16752 1.219909,3.23313 0,2.06562 -1.219909,3.23314 -1.212425,1.16752 -3.375331,1.16752 -2.17039,0 -3.397783,-1.16752 -1.219909,-1.16752 -1.219909,-3.23314 0,-2.06561 1.219909,-3.23313 1.227393,-1.16752 3.397783,-1.16752 z"
             style="font-style:normal;font-variant:normal;font-weight:bold;font-stretch:normal;font-size:15.32744503px;line-height:125%;font-family:'Alegreya Sans SC';-inkscape-font-specification:'Alegreya Sans SC, Bold';text-align:start;writing-mode:lr-tb;text-anchor:start;fill:#008080;fill-opacity:1;stroke-width:1.06971347px"
             id="path952" />
          <path
             d="m 30.578018,237.38384 h 2.679309 l 2.088065,5.7927 2.080581,-5.7927 h 2.686793 l -3.300489,8.3822 h -2.941253 z"
             style="font-style:normal;font-variant:normal;font-weight:bold;font-stretch:normal;font-size:15.32744503px;line-height:125%;font-family:'Alegreya Sans SC';-inkscape-font-specification:'Alegreya Sans SC, Bold';text-align:start;writing-mode:lr-tb;text-anchor:start;fill:#008080;fill-opacity:1;stroke-width:1.06971347px"
             id="path954" />
          <path
             d="m 49.999269,241.55249 v 0.76338 h -6.264195 q 0.09729,0.94299 0.681053,1.41449 0.58376,0.4715 1.631535,0.4715 0.845704,0 1.728828,-0.24698 0.890608,-0.25446 1.826121,-0.76337 v 2.06561 q -0.950481,0.35923 -1.900962,0.53885 -0.950481,0.18711 -1.900962,0.18711 -2.275168,0 -3.539982,-1.15256 -1.257329,-1.16003 -1.257329,-3.2481 0,-2.05064 1.234877,-3.22565 1.242361,-1.175 3.412751,-1.175 1.975804,0 3.158292,1.18997 1.189973,1.18997 1.189973,3.18075 z m -2.75415,-0.89061 q 0,-0.76338 -0.449047,-1.2274 -0.441562,-0.47149 -1.160036,-0.47149 -0.778347,0 -1.264813,0.44156 -0.486467,0.43408 -0.606213,1.25733 z"
             style="font-style:normal;font-variant:normal;font-weight:bold;font-stretch:normal;font-size:15.32744503px;line-height:125%;font-family:'Alegreya Sans SC';-inkscape-font-specification:'Alegreya Sans SC, Bold';text-align:start;writing-mode:lr-tb;text-anchor:start;fill:#008080;fill-opacity:1;stroke-width:1.06971347px"
             id="path956" />
          <path
             d="m 58.568567,237.64578 v 2.03568 q -0.860672,-0.35924 -1.661471,-0.53886 -0.800799,-0.17961 -1.511789,-0.17961 -0.763378,0 -1.137584,0.19458 -0.366721,0.18711 -0.366721,0.58376 0,0.32182 0.276912,0.49395 0.284396,0.17214 1.010354,0.25446 l 0.471499,0.0674 q 2.058128,0.26194 2.769118,0.86067 0.71099,0.59873 0.71099,1.87851 0,1.33966 -0.987902,2.01323 -0.987901,0.67357 -2.948737,0.67357 -0.830735,0 -1.721344,-0.13472 -0.883124,-0.12723 -1.818637,-0.38917 v -2.03568 q 0.800799,0.38918 1.639019,0.58376 0.845704,0.19459 1.71386,0.19459 0.785831,0 1.182488,-0.21704 0.396658,-0.21704 0.396658,-0.64363 0,-0.35924 -0.276912,-0.53137 -0.269428,-0.17962 -1.085195,-0.27692 l -0.471499,-0.0599 q -1.788701,-0.22452 -2.507175,-0.83073 -0.718474,-0.60622 -0.718474,-1.84109 0,-1.33217 0.913061,-1.97581 0.913061,-0.64363 2.799055,-0.64363 0.740926,0 1.556694,0.11226 0.815767,0.11226 1.773732,0.35175 z"
             style="font-style:normal;font-variant:normal;font-weight:bold;font-stretch:normal;font-size:15.32744503px;line-height:125%;font-family:'Alegreya Sans SC';-inkscape-font-specification:'Alegreya Sans SC, Bold';text-align:start;writing-mode:lr-tb;text-anchor:start;fill:#008080;fill-opacity:1;stroke-width:1.06971347px"
             id="path958" />
          <path
             d="m 61.427496,242.86969 h 2.694277 v 2.89635 h -2.694277 z"
             style="fill:#ffd75e;fill-opacity:1"
             id="path960" />
        </g>
      </g>
    </g>
  </g>
</svg>
